<svg width="408" height="67" viewBox="0 0 408 67" fill="none" xmlns="http://www.w3.org/2000/svg">
<path d="M0 7.18803C0 3.2182 3.21819 0 7.18802 0H83.4433C87.4131 0 90.6313 3.21819 90.6313 7.18802V48.8509H0V7.18803Z" fill="#303030"/>
<path d="M5.14233 12.3302C5.14233 8.36041 8.36052 5.14221 12.3304 5.14221H77.6584C81.6282 5.14221 84.8464 8.3604 84.8464 12.3302V44.3515H5.14233V12.3302Z" fill="white"/>
<path d="M0 50.7792H90.6313C90.6313 53.2641 88.6168 55.2786 86.1318 55.2786H4.49942C2.01445 55.2786 0 53.2641 0 50.7792Z" fill="#303030"/>
<rect x="7.71338" y="39.0115" width="54.6853" height="1.48333" fill="#CEA140"/>
<path d="M13.322 35.6739L21.0341 25.2907L24.8901 28.999L31.901 23.0657L36.4581 26.0323L43.8196 16.3907L46.2734 18.6157L56.2428 9.96295M56.2428 9.96295L50.7792 10.6057M56.2428 9.96295L54.9572 15.1052" stroke="#CEA140" stroke-width="2.15641"/>
<line x1="21.411" y1="25.6615" x2="21.411" y2="39.7531" stroke="#CEA140" stroke-width="2.15641"/>
<line x1="36.8355" y1="25.6615" x2="36.8355" y2="39.7531" stroke="#CEA140" stroke-width="2.15641"/>
<line x1="43.8463" y1="16.7615" x2="43.8463" y2="39.7531" stroke="#CEA140" stroke-width="2.15641"/>
<line x1="51.5584" y1="14.5366" x2="51.5584" y2="39.7531" stroke="#CEA140" stroke-width="2.15641"/>
<line x1="29.1236" y1="25.6615" x2="29.1236" y2="39.7531" stroke="#CEA140" stroke-width="2.15641"/>
<line x1="13.6995" y1="35.3031" x2="13.6995" y2="40.4947" stroke="#CEA140" stroke-width="2.15641"/>
<path d="M117.286 47.1C115.072 47.1 112.95 46.8101 110.921 46.2303C108.892 45.6241 107.257 44.8466 106.019 43.8978L108.193 39.0746C109.379 39.918 110.776 40.6164 112.384 41.1699C114.018 41.697 115.665 41.9606 117.326 41.9606C118.591 41.9606 119.605 41.842 120.37 41.6048C121.16 41.3412 121.74 40.9854 122.109 40.5374C122.478 40.0893 122.663 39.5754 122.663 38.9955C122.663 38.2576 122.373 37.6777 121.793 37.256C121.213 36.808 120.449 36.4522 119.5 36.1886C118.551 35.8987 117.497 35.6351 116.337 35.3979C115.204 35.1344 114.057 34.8181 112.898 34.4491C111.764 34.0801 110.723 33.6057 109.774 33.0259C108.826 32.446 108.048 31.6817 107.442 30.7329C106.862 29.7841 106.572 28.5717 106.572 27.0958C106.572 25.5144 106.994 24.078 107.837 22.7865C108.707 21.4687 109.999 20.4277 111.712 19.6633C113.451 18.8727 115.626 18.4773 118.235 18.4773C119.974 18.4773 121.687 18.6882 123.374 19.1099C125.061 19.5052 126.55 20.1114 127.842 20.9284L125.865 25.7911C124.573 25.0532 123.282 24.5129 121.991 24.1702C120.699 23.8012 119.434 23.6168 118.195 23.6168C116.957 23.6168 115.942 23.7617 115.151 24.0516C114.36 24.3415 113.794 24.7237 113.451 25.1981C113.109 25.6462 112.937 26.1733 112.937 26.7795C112.937 27.4911 113.227 28.0709 113.807 28.519C114.387 28.9407 115.151 29.2833 116.1 29.5469C117.049 29.8104 118.09 30.074 119.223 30.3376C120.383 30.6011 121.529 30.9042 122.663 31.2468C123.822 31.5895 124.877 32.0507 125.825 32.6305C126.774 33.2104 127.538 33.9747 128.118 34.9235C128.725 35.8723 129.028 37.0715 129.028 38.5211C129.028 40.0761 128.593 41.4994 127.723 42.7908C126.853 44.0822 125.549 45.1233 123.809 45.914C122.096 46.7047 119.922 47.1 117.286 47.1ZM160.208 25.04C161.895 25.04 163.384 25.3826 164.675 26.0679C165.993 26.7268 167.021 27.7547 167.759 29.1515C168.523 30.522 168.905 32.2879 168.905 34.4491V46.6256H162.738V35.3979C162.738 33.6848 162.382 32.4197 161.671 31.6026C160.959 30.7856 159.958 30.3771 158.666 30.3771C157.77 30.3771 156.966 30.5879 156.255 31.0096C155.543 31.405 154.989 32.0112 154.594 32.8282C154.199 33.6452 154.001 34.6863 154.001 35.9514V46.6256H147.834V35.3979C147.834 33.6848 147.478 32.4197 146.766 31.6026C146.081 30.7856 145.093 30.3771 143.801 30.3771C142.905 30.3771 142.101 30.5879 141.39 31.0096C140.678 31.405 140.125 32.0112 139.729 32.8282C139.334 33.6452 139.136 34.6863 139.136 35.9514V46.6256H132.969V25.3563H138.86V31.1678L137.753 29.4678C138.491 28.0182 139.532 26.9244 140.876 26.1865C142.246 25.4221 143.801 25.04 145.541 25.04C147.491 25.04 149.191 25.5408 150.641 26.5423C152.117 27.5175 153.092 29.0198 153.566 31.0492L151.392 30.4562C152.103 28.7957 153.237 27.4779 154.792 26.5027C156.373 25.5276 158.179 25.04 160.208 25.04ZM187.48 46.6256V42.4745L187.084 41.5652V34.1328C187.084 32.815 186.676 31.7871 185.859 31.0492C185.068 30.3112 183.843 29.9422 182.182 29.9422C181.049 29.9422 179.929 30.1267 178.822 30.4957C177.741 30.8383 176.819 31.3127 176.054 31.9189L173.84 27.6097C175 26.7927 176.397 26.1601 178.031 25.7121C179.665 25.264 181.326 25.04 183.012 25.04C186.254 25.04 188.771 25.8043 190.563 27.333C192.356 28.8616 193.252 31.2468 193.252 34.4886V46.6256H187.48ZM180.996 46.9419C179.336 46.9419 177.912 46.6651 176.726 46.1117C175.54 45.5318 174.631 44.7543 173.999 43.7792C173.366 42.804 173.05 41.7102 173.05 40.4978C173.05 39.2327 173.353 38.1258 173.959 37.177C174.592 36.2281 175.58 35.4902 176.924 34.963C178.268 34.4096 180.021 34.1328 182.182 34.1328H187.836V37.7304H182.854C181.405 37.7304 180.403 37.9676 179.85 38.442C179.323 38.9165 179.059 39.5095 179.059 40.2211C179.059 41.0118 179.362 41.6443 179.968 42.1187C180.601 42.5668 181.457 42.7908 182.538 42.7908C183.566 42.7908 184.488 42.5536 185.305 42.0792C186.122 41.5784 186.715 40.8536 187.084 39.9048L188.033 42.7513C187.585 44.1218 186.768 45.1628 185.582 45.8745C184.396 46.5861 182.867 46.9419 180.996 46.9419ZM198.833 46.6256V25.3563H204.724V31.3654L203.894 29.6259C204.526 28.1236 205.541 26.9903 206.938 26.226C208.335 25.4353 210.035 25.04 212.038 25.04V30.7329C211.774 30.7065 211.537 30.6934 211.326 30.6934C211.115 30.667 210.891 30.6538 210.654 30.6538C208.967 30.6538 207.597 31.1414 206.543 32.1166C205.515 33.0654 205.001 34.5545 205.001 36.5839V46.6256H198.833ZM225.136 46.9419C222.632 46.9419 220.682 46.3093 219.285 45.0442C217.888 43.7528 217.19 41.842 217.19 39.3118V20.6517H223.357V39.2327C223.357 40.1288 223.594 40.8273 224.069 41.328C224.543 41.8024 225.189 42.0397 226.006 42.0397C226.981 42.0397 227.811 41.7761 228.496 41.249L230.157 45.5977C229.524 46.0458 228.76 46.3884 227.864 46.6256C226.994 46.8365 226.085 46.9419 225.136 46.9419ZM213.908 30.5748V25.8307H228.654V30.5748H213.908Z" fill="#0C4B6B"/>
<path d="M245.25 46.6256V18.9517H251.654V46.6256H245.25ZM270.715 25.04C272.402 25.04 273.904 25.3826 275.222 26.0679C276.566 26.7268 277.62 27.7547 278.384 29.1515C279.149 30.522 279.531 32.2879 279.531 34.4491V46.6256H273.364V35.3979C273.364 33.6848 272.981 32.4197 272.217 31.6026C271.479 30.7856 270.425 30.3771 269.054 30.3771C268.079 30.3771 267.196 30.5879 266.406 31.0096C265.641 31.405 265.035 32.0243 264.587 32.8677C264.165 33.7111 263.954 34.7917 263.954 36.1095V46.6256H257.787V25.3563H263.678V31.2468L262.571 29.4678C263.335 28.0446 264.429 26.9508 265.852 26.1865C267.275 25.4221 268.896 25.04 270.715 25.04ZM290.507 46.6256L281.572 25.3563H287.937L295.37 43.6606H292.207L299.916 25.3563H305.846L296.872 46.6256H290.507ZM318.339 46.9419C315.915 46.9419 313.78 46.4675 311.935 45.5187C310.116 44.5698 308.706 43.2784 307.705 41.6443C306.703 39.9839 306.203 38.0994 306.203 35.9909C306.203 33.8561 306.69 31.9716 307.665 30.3376C308.667 28.6771 310.024 27.3857 311.737 26.4632C313.45 25.5144 315.388 25.04 317.549 25.04C319.631 25.04 321.502 25.488 323.163 26.3841C324.849 27.2539 326.18 28.519 327.156 30.1794C328.131 31.8135 328.618 33.777 328.618 36.07C328.618 36.3072 328.605 36.5839 328.579 36.9002C328.552 37.1901 328.526 37.4669 328.5 37.7304H311.223V34.1328H325.258L322.886 35.2003C322.886 34.0933 322.662 33.1313 322.214 32.3143C321.766 31.4972 321.146 30.8647 320.356 30.4166C319.565 29.9422 318.643 29.705 317.588 29.705C316.534 29.705 315.598 29.9422 314.781 30.4166C313.991 30.8647 313.371 31.5104 312.923 32.3538C312.475 33.1708 312.251 34.146 312.251 35.2793V36.2281C312.251 37.3878 312.502 38.4157 313.002 39.3118C313.529 40.1815 314.254 40.8536 315.177 41.328C316.126 41.7761 317.233 42.0001 318.498 42.0001C319.631 42.0001 320.619 41.8288 321.463 41.4862C322.332 41.1435 323.123 40.6296 323.835 39.9443L327.116 43.5024C326.141 44.6094 324.915 45.4659 323.439 46.0721C321.963 46.652 320.263 46.9419 318.339 46.9419ZM339.88 46.9419C338.061 46.9419 336.309 46.731 334.622 46.3093C332.962 45.8613 331.644 45.3078 330.669 44.6489L332.724 40.2211C333.699 40.8273 334.846 41.328 336.164 41.7234C337.508 42.0924 338.826 42.2769 340.117 42.2769C341.54 42.2769 342.542 42.1055 343.122 41.7629C343.728 41.4203 344.031 40.9459 344.031 40.3397C344.031 39.8389 343.794 39.4699 343.319 39.2327C342.871 38.9692 342.265 38.7715 341.501 38.6397C340.737 38.5079 339.893 38.3762 338.971 38.2444C338.075 38.1126 337.165 37.9413 336.243 37.7304C335.32 37.4932 334.477 37.1506 333.713 36.7025C332.948 36.2545 332.329 35.6483 331.855 34.884C331.407 34.1197 331.182 33.1313 331.182 31.9189C331.182 30.5748 331.565 29.3887 332.329 28.3609C333.12 27.333 334.253 26.5291 335.729 25.9493C337.205 25.3431 338.971 25.04 341.026 25.04C342.476 25.04 343.952 25.1981 345.454 25.5144C346.957 25.8307 348.209 26.2919 349.21 26.8981L347.154 31.2864C346.126 30.6802 345.085 30.2717 344.031 30.0608C343.003 29.8236 342.002 29.705 341.026 29.705C339.656 29.705 338.654 29.8895 338.022 30.2585C337.389 30.6275 337.073 31.1019 337.073 31.6817C337.073 32.2088 337.297 32.6042 337.745 32.8677C338.22 33.1313 338.839 33.3421 339.603 33.5003C340.368 33.6584 341.198 33.8034 342.094 33.9352C343.016 34.0406 343.939 34.2119 344.861 34.4491C345.784 34.6863 346.614 35.0289 347.352 35.477C348.116 35.8987 348.736 36.4917 349.21 37.256C349.684 37.994 349.922 38.9692 349.922 40.1816C349.922 41.4994 349.526 42.6722 348.736 43.7001C347.945 44.7016 346.798 45.4923 345.296 46.0721C343.82 46.652 342.015 46.9419 339.88 46.9419ZM362.424 46.9419C359.921 46.9419 357.97 46.3093 356.573 45.0442C355.176 43.7528 354.478 41.842 354.478 39.3118V20.6517H360.645V39.2327C360.645 40.1288 360.883 40.8273 361.357 41.328C361.831 41.8024 362.477 42.0397 363.294 42.0397C364.269 42.0397 365.099 41.7761 365.785 41.249L367.445 45.5977C366.813 46.0458 366.048 46.3884 365.152 46.6256C364.282 46.8365 363.373 46.9419 362.424 46.9419ZM351.197 30.5748V25.8307H365.943V30.5748H351.197Z" fill="#303030"/>
<rect x="39.8521" y="56.5642" width="10.2844" height="8.35607" fill="#303030"/>
<path d="M23.1399 64.9203C23.1399 63.8553 24.0032 62.9919 25.0682 62.9919H63.6347C64.6997 62.9919 65.563 63.8553 65.563 64.9203C65.563 65.9853 64.6997 66.8486 63.6347 66.8486H44.5426H25.0682C24.0032 66.8486 23.1399 65.9853 23.1399 64.9203Z" fill="#303030"/>
<g clip-path="url(#clip0_28_636)">
<path fill-rule="evenodd" clip-rule="evenodd" d="M76.0597 24.0989C75.9316 24.0257 75.7777 24.0077 75.5854 24.1377C75.4066 24.2593 75.1675 24.2329 75.018 24.076C74.8686 23.9191 74.8507 23.6755 74.9757 23.4976C75.2198 23.1499 75.2826 22.9008 75.2826 22.7484C75.2826 22.6079 75.2308 22.5227 75.1645 22.4664C74.9986 22.326 74.7027 22.3295 74.5393 22.4953C74.3884 22.6488 74.1513 22.6717 73.9744 22.5501C73.7976 22.4286 73.7303 22.1959 73.8145 21.9967C73.9395 21.6998 73.8897 21.5498 73.8489 21.4826C73.7981 21.3994 73.686 21.3192 73.5141 21.2918C73.3428 21.2644 73.1714 21.3003 73.0573 21.376C72.9602 21.4403 72.8879 21.5399 72.8875 21.7187V23.7014C73.0733 23.5977 73.2949 23.534 73.556 23.534C73.8021 23.534 74.0018 23.7367 74.0018 23.9868C74.0018 24.2369 73.8021 24.4396 73.556 24.4396C73.3278 24.4396 73.1779 24.5572 73.0608 24.7883C72.9363 25.0349 72.8879 25.3522 72.8875 25.5684V25.966C73.0733 25.8623 73.2949 25.7986 73.556 25.7986C73.8021 25.7986 74.0018 26.0013 74.0018 26.2519C74.0018 26.5025 73.8021 26.7052 73.556 26.7052C73.3278 26.7052 73.1779 26.8228 73.0608 27.0539C72.9363 27.3 72.8879 27.6178 72.8875 27.834V28.9723C72.8889 29.2224 73.1161 29.4112 73.3612 29.3957C73.7154 29.3733 73.6247 28.8507 73.5694 28.6271C73.5281 28.4582 73.5849 28.2804 73.7164 28.1693C73.8479 28.0582 74.0302 28.0328 74.1861 28.105C74.7251 28.3541 75.0853 28.3362 75.3045 28.2505C75.5232 28.1653 75.6756 27.984 75.7523 27.7513C75.8305 27.5122 75.8171 27.2487 75.7274 27.0484C75.6437 26.8616 75.4993 26.7331 75.2761 26.7007C75.0584 26.6693 74.896 26.481 74.8935 26.2574C74.891 26.0337 75.0489 25.8419 75.2661 25.805C75.8524 25.7059 76.1503 25.4827 76.2938 25.28C76.4373 25.0763 76.4677 24.8347 76.4119 24.6065C76.3536 24.3699 76.2116 24.1846 76.0612 24.0984L76.0597 24.0989Z" fill="#0C4B6B"/>
<path fill-rule="evenodd" clip-rule="evenodd" d="M71.8254 21.3764C71.7109 21.3007 71.54 21.2644 71.3686 21.2923C71.1968 21.3197 71.0847 21.3999 71.0339 21.483C70.993 21.5503 70.9427 21.7002 71.0682 21.9971C71.1524 22.1969 71.0852 22.429 70.9083 22.5506C70.7315 22.6721 70.4944 22.6492 70.3434 22.4958C70.18 22.3299 69.8841 22.3264 69.7182 22.4669C69.652 22.5232 69.6002 22.6084 69.6002 22.7488C69.6002 22.9013 69.663 23.1504 69.907 23.4981C70.0321 23.6759 70.0142 23.9195 69.8647 24.0764C69.7148 24.2333 69.4761 24.2597 69.2973 24.1382C69.1055 24.0082 68.9511 24.0256 68.8231 24.0993C68.6726 24.1855 68.5307 24.3708 68.4724 24.6074C68.4161 24.8361 68.4465 25.0777 68.5899 25.2809C68.7334 25.4837 69.0308 25.7069 69.6176 25.806C69.8343 25.8429 69.9927 26.0346 69.9902 26.2583C69.9877 26.482 69.8254 26.6698 69.6077 26.7017C69.385 26.734 69.24 26.8626 69.1563 27.0494C69.0667 27.2496 69.0532 27.5132 69.1314 27.7523C69.2076 27.9849 69.3606 28.1662 69.5788 28.2514C69.798 28.3371 70.1581 28.355 70.6971 28.106C70.853 28.0342 71.0354 28.0591 71.1669 28.1702C71.2984 28.2813 71.3557 28.4596 71.3138 28.628C71.2585 28.8517 71.1679 29.3742 71.5221 29.3967C71.7666 29.4121 71.9943 29.2228 71.9958 28.9732V27.835C71.9953 27.6188 71.947 27.3009 71.8224 27.0549C71.7054 26.8237 71.5554 26.7062 71.3273 26.7062C71.0812 26.7062 70.8814 26.5034 70.8814 26.2528C70.8814 26.0023 71.0812 25.7995 71.3273 25.7995C71.5888 25.7995 71.81 25.8633 71.9958 25.9669V25.5694C71.9953 25.3532 71.947 25.0354 71.8224 24.7893C71.7054 24.5581 71.5554 24.4406 71.3273 24.4406C71.0812 24.4406 70.8814 24.2378 70.8814 23.9877C70.8814 23.7377 71.0812 23.5349 71.3273 23.5349C71.5888 23.5349 71.81 23.5987 71.9958 23.7023V21.7197C71.9948 21.5408 71.9231 21.4412 71.8259 21.3769L71.8254 21.3764Z" fill="#0C4B6B"/>
<path fill-rule="evenodd" clip-rule="evenodd" d="M76.7114 19.5582H67.9235C67.1554 19.5582 66.5332 20.1904 66.5332 20.9705V29.8948C66.5332 30.675 67.1559 31.3071 67.9235 31.3071H76.7114C77.4796 31.3071 78.1018 30.675 78.1018 29.8948V20.9705C78.1018 20.1904 77.4791 19.5582 76.7114 19.5582ZM77.0173 25.809C76.8574 26.0357 76.6402 26.2285 76.3677 26.3804C76.4349 26.4721 76.4922 26.5707 76.5386 26.6743C76.7279 27.0972 76.7418 27.5979 76.5973 28.0387C76.4509 28.4856 76.1301 28.899 75.624 29.0968C75.2942 29.2258 74.9176 29.2507 74.5046 29.1641C74.4857 29.3783 74.4284 29.5725 74.3293 29.7429C74.1175 30.1071 73.7634 30.2789 73.4161 30.3008C73.0844 30.3218 72.7182 30.2032 72.4413 29.9631C72.1638 30.2032 71.7982 30.3223 71.4664 30.3008C71.1192 30.2789 70.7645 30.1071 70.5533 29.7429C70.4546 29.5725 70.3969 29.3783 70.3779 29.1641C69.965 29.2507 69.5884 29.2253 69.2586 29.0968C68.7525 28.899 68.4317 28.4851 68.2852 28.0387C68.1407 27.5984 68.1552 27.0972 68.344 26.6743C68.3903 26.5707 68.4471 26.4721 68.5148 26.3804C68.2424 26.229 68.0257 26.0362 67.8653 25.809C67.5489 25.3612 67.4961 24.8386 67.6067 24.3873C67.7158 23.9444 67.9918 23.535 68.3843 23.3098C68.5034 23.2416 68.6304 23.1922 68.7624 23.1638C68.7261 23.0224 68.7081 22.8839 68.7081 22.7489C68.7081 22.3369 68.8795 21.9977 69.147 21.771C69.4115 21.5468 69.7637 21.4397 70.1114 21.4637C70.1353 21.3008 70.1901 21.1468 70.2758 21.0064C70.497 20.6437 70.8721 20.4549 71.2298 20.3971C71.5874 20.3398 71.988 20.4026 72.3122 20.6173C72.4477 20.707 72.4358 20.707 72.5713 20.6173C72.8956 20.4026 73.2956 20.3398 73.6538 20.3971C74.0114 20.4544 74.3865 20.6432 74.6077 21.0064C74.6934 21.1468 74.7482 21.3008 74.7721 21.4637C75.1198 21.4402 75.472 21.5473 75.7365 21.771C76.0045 21.9977 76.1754 22.3374 76.1754 22.7489C76.1754 22.8839 76.157 23.0224 76.1211 23.1638C76.2531 23.1922 76.3801 23.2416 76.4992 23.3098C76.8917 23.535 77.1677 23.9444 77.2768 24.3873C77.3879 24.8386 77.3346 25.3612 77.0183 25.809H77.0173Z" fill="#0C4B6B"/>
<path fill-rule="evenodd" clip-rule="evenodd" d="M79.8374 21.5862H81.8684C82.0926 21.5862 82.2744 21.4014 82.2744 21.1737V20.7817C82.2744 20.554 82.0926 20.3692 81.8684 20.3692H79.8374C79.829 20.3692 79.8205 20.3702 79.8125 20.3707V19.6514C79.8125 18.6411 79.006 17.8217 78.0107 17.8217H77.3362V15.839C77.3362 15.6114 77.1544 15.4266 76.9302 15.4266H76.5442C76.32 15.4266 76.1382 15.6114 76.1382 15.839V17.8217H73.0407V15.839C73.0407 15.6114 72.8589 15.4266 72.6347 15.4266H72.2486C72.0245 15.4266 71.8426 15.6114 71.8426 15.839V17.8217H68.7451V15.839C68.7451 15.6114 68.5633 15.4266 68.3391 15.4266H67.9531C67.7289 15.4266 67.5471 15.6114 67.5471 15.839V17.8217H66.6255C65.6307 17.8217 64.8237 18.6406 64.8237 19.6514V20.3712C64.8117 20.3702 64.7993 20.3692 64.7868 20.3692H62.7549C62.5307 20.3692 62.3489 20.554 62.3489 20.7817V21.1737C62.3489 21.4014 62.5307 21.5862 62.7549 21.5862H64.7863C64.7988 21.5862 64.8112 21.5852 64.8232 21.5842V24.7335C64.8112 24.7325 64.7988 24.7315 64.7863 24.7315H62.7549C62.5307 24.7315 62.3489 24.9163 62.3489 25.144V25.536C62.3489 25.7637 62.5307 25.9485 62.7549 25.9485H64.7863C64.7988 25.9485 64.8112 25.9475 64.8232 25.9465V29.0958C64.8112 29.0948 64.7988 29.0938 64.7863 29.0938H62.7549C62.5307 29.0938 62.3489 29.2786 62.3489 29.5063V29.8983C62.3489 30.126 62.5307 30.3108 62.7549 30.3108H64.7863C64.7988 30.3108 64.8112 30.3098 64.8232 30.3088V31.2135C64.8232 32.2237 65.6297 33.0432 66.625 33.0432H67.5466V34.9396C67.5466 35.1673 67.7284 35.3521 67.9526 35.3521H68.3386C68.5628 35.3521 68.7446 35.1673 68.7446 34.9396V33.0432H71.8421V34.9396C71.8421 35.1673 72.024 35.3521 72.2481 35.3521H72.6342C72.8584 35.3521 73.0402 35.1673 73.0402 34.9396V33.0432H76.1377V34.9396C76.1377 35.1673 76.3195 35.3521 76.5437 35.3521H76.9297C77.1539 35.3521 77.3357 35.1673 77.3357 34.9396V33.0432H78.0102C79.005 33.0432 79.812 32.2242 79.812 31.2135V30.3093C79.8205 30.3098 79.8285 30.3108 79.837 30.3108H81.8679C82.0921 30.3108 82.2739 30.126 82.2739 29.8983V29.5063C82.2739 29.2786 82.0921 29.0938 81.8679 29.0938H79.837C79.8285 29.0938 79.82 29.0948 79.812 29.0953V25.9475C79.8205 25.948 79.8285 25.949 79.837 25.949H81.8679C82.0921 25.949 82.2739 25.7642 82.2739 25.5365V25.1445C82.2739 24.9168 82.0921 24.732 81.8679 24.732H79.837C79.8285 24.732 79.82 24.733 79.812 24.7335V21.5857C79.8205 21.5862 79.8285 21.5872 79.837 21.5872L79.8374 21.5862ZM78.9996 30.5868C78.9996 31.4874 78.2802 32.2182 77.3935 32.2182H67.2422C66.355 32.2182 65.6362 31.4879 65.6362 30.5868V20.2786C65.6362 19.3779 66.3555 18.6471 67.2422 18.6471H77.393C78.2802 18.6471 78.9991 19.3774 78.9991 20.2786V30.5873L78.9996 30.5868Z" fill="#0C4B6B"/>
</g>
<defs>
<clipPath id="clip0_28_636">
<rect width="19.926" height="19.926" fill="white" transform="translate(62.3489 15.4266)"/>
</clipPath>
</defs>
</svg>
